<?xml version="1.0" encoding="UTF-8"?>
<svg xmlns="http://www.w3.org/2000/svg" width="72" height="72"><rect x="0" y="0" width="100%" height="100%" fill="rgb(253, 121, 168)"/><circle cx="6" cy="6" r="5" fill="none" stroke="#ddd" style="opacity:0.02;stroke-width:2px;"/><circle cx="6" cy="6" r="2.5" fill="#ddd" fill-opacity="0.037333333333333"/><circle cx="18" cy="6" r="5" fill="none" stroke="#222" style="opacity:0.063333333333333;stroke-width:2px;"/><circle cx="18" cy="6" r="2.5" fill="#ddd" fill-opacity="0.072"/><circle cx="30" cy="6" r="5" fill="none" stroke="#222" style="opacity:0.15;stroke-width:2px;"/><circle cx="30" cy="6" r="2.5" fill="#222" fill-opacity="0.098"/><circle cx="42" cy="6" r="5" fill="none" stroke="#222" style="opacity:0.11533333333333;stroke-width:2px;"/><circle cx="42" cy="6" r="2.5" fill="#222" fill-opacity="0.028666666666667"/><circle cx="54" cy="6" r="5" fill="none" stroke="#ddd" style="opacity:0.02;stroke-width:2px;"/><circle cx="54" cy="6" r="2.5" fill="#ddd" fill-opacity="0.124"/><circle cx="66" cy="6" r="5" fill="none" stroke="#ddd" style="opacity:0.124;stroke-width:2px;"/><circle cx="66" cy="6" r="2.5" fill="#222" fill-opacity="0.080666666666667"/><circle cx="6" cy="18" r="5" fill="none" stroke="#ddd" style="opacity:0.124;stroke-width:2px;"/><circle cx="6" cy="18" r="2.5" fill="#ddd" fill-opacity="0.14133333333333"/><circle cx="18" cy="18" r="5" fill="none" stroke="#222" style="opacity:0.13266666666667;stroke-width:2px;"/><circle cx="18" cy="18" r="2.5" fill="#222" fill-opacity="0.11533333333333"/><circle cx="30" cy="18" r="5" fill="none" stroke="#ddd" style="opacity:0.072;stroke-width:2px;"/><circle cx="30" cy="18" r="2.5" fill="#ddd" fill-opacity="0.02"/><circle cx="42" cy="18" r="5" fill="none" stroke="#ddd" style="opacity:0.054666666666667;stroke-width:2px;"/><circle cx="42" cy="18" r="2.5" fill="#222" fill-opacity="0.080666666666667"/><circle cx="54" cy="18" r="5" fill="none" stroke="#ddd" style="opacity:0.02;stroke-width:2px;"/><circle cx="54" cy="18" r="2.5" fill="#ddd" fill-opacity="0.02"/><circle cx="66" cy="18" r="5" fill="none" stroke="#222" style="opacity:0.028666666666667;stroke-width:2px;"/><circle cx="66" cy="18" r="2.5" fill="#ddd" fill-opacity="0.054666666666667"/><circle cx="6" cy="30" r="5" fill="none" stroke="#ddd" style="opacity:0.10666666666667;stroke-width:2px;"/><circle cx="6" cy="30" r="2.5" fill="#222" fill-opacity="0.098"/><circle cx="18" cy="30" r="5" fill="none" stroke="#ddd" style="opacity:0.072;stroke-width:2px;"/><circle cx="18" cy="30" r="2.5" fill="#222" fill-opacity="0.098"/><circle cx="30" cy="30" r="5" fill="none" stroke="#ddd" style="opacity:0.14133333333333;stroke-width:2px;"/><circle cx="30" cy="30" r="2.5" fill="#ddd" fill-opacity="0.089333333333333"/><circle cx="42" cy="30" r="5" fill="none" stroke="#222" style="opacity:0.028666666666667;stroke-width:2px;"/><circle cx="42" cy="30" r="2.5" fill="#222" fill-opacity="0.028666666666667"/><circle cx="54" cy="30" r="5" fill="none" stroke="#ddd" style="opacity:0.089333333333333;stroke-width:2px;"/><circle cx="54" cy="30" r="2.5" fill="#ddd" fill-opacity="0.089333333333333"/><circle cx="66" cy="30" r="5" fill="none" stroke="#ddd" style="opacity:0.14133333333333;stroke-width:2px;"/><circle cx="66" cy="30" r="2.5" fill="#222" fill-opacity="0.028666666666667"/><circle cx="6" cy="42" r="5" fill="none" stroke="#222" style="opacity:0.098;stroke-width:2px;"/><circle cx="6" cy="42" r="2.5" fill="#222" fill-opacity="0.080666666666667"/><circle cx="18" cy="42" r="5" fill="none" stroke="#ddd" style="opacity:0.089333333333333;stroke-width:2px;"/><circle cx="18" cy="42" r="2.5" fill="#ddd" fill-opacity="0.10666666666667"/><circle cx="30" cy="42" r="5" fill="none" stroke="#ddd" style="opacity:0.10666666666667;stroke-width:2px;"/><circle cx="30" cy="42" r="2.5" fill="#ddd" fill-opacity="0.089333333333333"/><circle cx="42" cy="42" r="5" fill="none" stroke="#222" style="opacity:0.080666666666667;stroke-width:2px;"/><circle cx="42" cy="42" r="2.5" fill="#222" fill-opacity="0.098"/><circle cx="54" cy="42" r="5" fill="none" stroke="#222" style="opacity:0.028666666666667;stroke-width:2px;"/><circle cx="54" cy="42" r="2.5" fill="#ddd" fill-opacity="0.14133333333333"/><circle cx="66" cy="42" r="5" fill="none" stroke="#ddd" style="opacity:0.089333333333333;stroke-width:2px;"/><circle cx="66" cy="42" r="2.5" fill="#ddd" fill-opacity="0.089333333333333"/><circle cx="6" cy="54" r="5" fill="none" stroke="#222" style="opacity:0.028666666666667;stroke-width:2px;"/><circle cx="6" cy="54" r="2.5" fill="#222" fill-opacity="0.028666666666667"/><circle cx="18" cy="54" r="5" fill="none" stroke="#ddd" style="opacity:0.089333333333333;stroke-width:2px;"/><circle cx="18" cy="54" r="2.5" fill="#ddd" fill-opacity="0.14133333333333"/><circle cx="30" cy="54" r="5" fill="none" stroke="#222" style="opacity:0.098;stroke-width:2px;"/><circle cx="30" cy="54" r="2.5" fill="#ddd" fill-opacity="0.072"/><circle cx="42" cy="54" r="5" fill="none" stroke="#222" style="opacity:0.098;stroke-width:2px;"/><circle cx="42" cy="54" r="2.5" fill="#ddd" fill-opacity="0.10666666666667"/><circle cx="54" cy="54" r="5" fill="none" stroke="#ddd" style="opacity:0.054666666666667;stroke-width:2px;"/><circle cx="54" cy="54" r="2.5" fill="#222" fill-opacity="0.028666666666667"/><circle cx="66" cy="54" r="5" fill="none" stroke="#ddd" style="opacity:0.02;stroke-width:2px;"/><circle cx="66" cy="54" r="2.5" fill="#ddd" fill-opacity="0.02"/><circle cx="6" cy="66" r="5" fill="none" stroke="#222" style="opacity:0.080666666666667;stroke-width:2px;"/><circle cx="6" cy="66" r="2.5" fill="#ddd" fill-opacity="0.054666666666667"/><circle cx="18" cy="66" r="5" fill="none" stroke="#ddd" style="opacity:0.02;stroke-width:2px;"/><circle cx="18" cy="66" r="2.5" fill="#ddd" fill-opacity="0.072"/><circle cx="30" cy="66" r="5" fill="none" stroke="#222" style="opacity:0.11533333333333;stroke-width:2px;"/><circle cx="30" cy="66" r="2.5" fill="#222" fill-opacity="0.13266666666667"/><circle cx="42" cy="66" r="5" fill="none" stroke="#ddd" style="opacity:0.14133333333333;stroke-width:2px;"/><circle cx="42" cy="66" r="2.5" fill="#ddd" fill-opacity="0.124"/><circle cx="54" cy="66" r="5" fill="none" stroke="#222" style="opacity:0.080666666666667;stroke-width:2px;"/><circle cx="54" cy="66" r="2.5" fill="#ddd" fill-opacity="0.124"/><circle cx="66" cy="66" r="5" fill="none" stroke="#ddd" style="opacity:0.124;stroke-width:2px;"/><circle cx="66" cy="66" r="2.5" fill="#ddd" fill-opacity="0.02"/></svg>