<?xml version="1.0" encoding="UTF-8"?>
<svg xmlns="http://www.w3.org/2000/svg" width="110" height="190"><rect x="0" y="0" width="100%" height="100%" fill="rgb(129, 236, 236)"/><polyline points="18.333333333333, 0, 36.666666666667, 31.754264805429, 0, 31.754264805429, 18.333333333333, 0" fill="#222" fill-opacity="0.063333333333333" stroke="#000" stroke-opacity="0.02" transform="translate(-18.333333333333, 0) rotate(180, 18.333333333333, 15.877132402715)"/><polyline points="18.333333333333, 0, 36.666666666667, 31.754264805429, 0, 31.754264805429, 18.333333333333, 0" fill="#222" fill-opacity="0.063333333333333" stroke="#000" stroke-opacity="0.02" transform="translate(91.666666666667, 0) rotate(180, 18.333333333333, 15.877132402715)"/><polyline points="18.333333333333, 0, 36.666666666667, 31.754264805429, 0, 31.754264805429, 18.333333333333, 0" fill="#ddd" fill-opacity="0.124" stroke="#000" stroke-opacity="0.02" transform="translate(0, 0) rotate(0, 18.333333333333, 15.877132402715)"/><polyline points="18.333333333333, 0, 36.666666666667, 31.754264805429, 0, 31.754264805429, 18.333333333333, 0" fill="#ddd" fill-opacity="0.10666666666667" stroke="#000" stroke-opacity="0.02" transform="translate(18.333333333333, 0) rotate(180, 18.333333333333, 15.877132402715)"/><polyline points="18.333333333333, 0, 36.666666666667, 31.754264805429, 0, 31.754264805429, 18.333333333333, 0" fill="#222" fill-opacity="0.15" stroke="#000" stroke-opacity="0.02" transform="translate(36.666666666667, 0) rotate(0, 18.333333333333, 15.877132402715)"/><polyline points="18.333333333333, 0, 36.666666666667, 31.754264805429, 0, 31.754264805429, 18.333333333333, 0" fill="#ddd" fill-opacity="0.10666666666667" stroke="#000" stroke-opacity="0.02" transform="translate(55, 0) rotate(180, 18.333333333333, 15.877132402715)"/><polyline points="18.333333333333, 0, 36.666666666667, 31.754264805429, 0, 31.754264805429, 18.333333333333, 0" fill="#ddd" fill-opacity="0.124" stroke="#000" stroke-opacity="0.02" transform="translate(73.333333333333, 0) rotate(0, 18.333333333333, 15.877132402715)"/><polyline points="18.333333333333, 0, 36.666666666667, 31.754264805429, 0, 31.754264805429, 18.333333333333, 0" fill="#222" fill-opacity="0.098" stroke="#000" stroke-opacity="0.02" transform="translate(-18.333333333333, 31.754264805429) rotate(0, 18.333333333333, 15.877132402715)"/><polyline points="18.333333333333, 0, 36.666666666667, 31.754264805429, 0, 31.754264805429, 18.333333333333, 0" fill="#222" fill-opacity="0.098" stroke="#000" stroke-opacity="0.02" transform="translate(91.666666666667, 31.754264805429) rotate(0, 18.333333333333, 15.877132402715)"/><polyline points="18.333333333333, 0, 36.666666666667, 31.754264805429, 0, 31.754264805429, 18.333333333333, 0" fill="#222" fill-opacity="0.13266666666667" stroke="#000" stroke-opacity="0.02" transform="translate(0, 31.754264805429) rotate(180, 18.333333333333, 15.877132402715)"/><polyline points="18.333333333333, 0, 36.666666666667, 31.754264805429, 0, 31.754264805429, 18.333333333333, 0" fill="#222" fill-opacity="0.11533333333333" stroke="#000" stroke-opacity="0.02" transform="translate(18.333333333333, 31.754264805429) rotate(0, 18.333333333333, 15.877132402715)"/><polyline points="18.333333333333, 0, 36.666666666667, 31.754264805429, 0, 31.754264805429, 18.333333333333, 0" fill="#222" fill-opacity="0.11533333333333" stroke="#000" stroke-opacity="0.02" transform="translate(36.666666666667, 31.754264805429) rotate(180, 18.333333333333, 15.877132402715)"/><polyline points="18.333333333333, 0, 36.666666666667, 31.754264805429, 0, 31.754264805429, 18.333333333333, 0" fill="#ddd" fill-opacity="0.054666666666667" stroke="#000" stroke-opacity="0.02" transform="translate(55, 31.754264805429) rotate(0, 18.333333333333, 15.877132402715)"/><polyline points="18.333333333333, 0, 36.666666666667, 31.754264805429, 0, 31.754264805429, 18.333333333333, 0" fill="#222" fill-opacity="0.11533333333333" stroke="#000" stroke-opacity="0.02" transform="translate(73.333333333333, 31.754264805429) rotate(180, 18.333333333333, 15.877132402715)"/><polyline points="18.333333333333, 0, 36.666666666667, 31.754264805429, 0, 31.754264805429, 18.333333333333, 0" fill="#222" fill-opacity="0.046" stroke="#000" stroke-opacity="0.02" transform="translate(-18.333333333333, 63.508529610859) rotate(180, 18.333333333333, 15.877132402715)"/><polyline points="18.333333333333, 0, 36.666666666667, 31.754264805429, 0, 31.754264805429, 18.333333333333, 0" fill="#222" fill-opacity="0.046" stroke="#000" stroke-opacity="0.02" transform="translate(91.666666666667, 63.508529610859) rotate(180, 18.333333333333, 15.877132402715)"/><polyline points="18.333333333333, 0, 36.666666666667, 31.754264805429, 0, 31.754264805429, 18.333333333333, 0" fill="#ddd" fill-opacity="0.10666666666667" stroke="#000" stroke-opacity="0.02" transform="translate(0, 63.508529610859) rotate(0, 18.333333333333, 15.877132402715)"/><polyline points="18.333333333333, 0, 36.666666666667, 31.754264805429, 0, 31.754264805429, 18.333333333333, 0" fill="#222" fill-opacity="0.13266666666667" stroke="#000" stroke-opacity="0.02" transform="translate(18.333333333333, 63.508529610859) rotate(180, 18.333333333333, 15.877132402715)"/><polyline points="18.333333333333, 0, 36.666666666667, 31.754264805429, 0, 31.754264805429, 18.333333333333, 0" fill="#ddd" fill-opacity="0.124" stroke="#000" stroke-opacity="0.02" transform="translate(36.666666666667, 63.508529610859) rotate(0, 18.333333333333, 15.877132402715)"/><polyline points="18.333333333333, 0, 36.666666666667, 31.754264805429, 0, 31.754264805429, 18.333333333333, 0" fill="#ddd" fill-opacity="0.089333333333333" stroke="#000" stroke-opacity="0.02" transform="translate(55, 63.508529610859) rotate(180, 18.333333333333, 15.877132402715)"/><polyline points="18.333333333333, 0, 36.666666666667, 31.754264805429, 0, 31.754264805429, 18.333333333333, 0" fill="#222" fill-opacity="0.080666666666667" stroke="#000" stroke-opacity="0.02" transform="translate(73.333333333333, 63.508529610859) rotate(0, 18.333333333333, 15.877132402715)"/><polyline points="18.333333333333, 0, 36.666666666667, 31.754264805429, 0, 31.754264805429, 18.333333333333, 0" fill="#222" fill-opacity="0.11533333333333" stroke="#000" stroke-opacity="0.02" transform="translate(-18.333333333333, 95.262794416288) rotate(0, 18.333333333333, 15.877132402715)"/><polyline points="18.333333333333, 0, 36.666666666667, 31.754264805429, 0, 31.754264805429, 18.333333333333, 0" fill="#222" fill-opacity="0.11533333333333" stroke="#000" stroke-opacity="0.02" transform="translate(91.666666666667, 95.262794416288) rotate(0, 18.333333333333, 15.877132402715)"/><polyline points="18.333333333333, 0, 36.666666666667, 31.754264805429, 0, 31.754264805429, 18.333333333333, 0" fill="#ddd" fill-opacity="0.02" stroke="#000" stroke-opacity="0.02" transform="translate(0, 95.262794416288) rotate(180, 18.333333333333, 15.877132402715)"/><polyline points="18.333333333333, 0, 36.666666666667, 31.754264805429, 0, 31.754264805429, 18.333333333333, 0" fill="#ddd" fill-opacity="0.089333333333333" stroke="#000" stroke-opacity="0.02" transform="translate(18.333333333333, 95.262794416288) rotate(0, 18.333333333333, 15.877132402715)"/><polyline points="18.333333333333, 0, 36.666666666667, 31.754264805429, 0, 31.754264805429, 18.333333333333, 0" fill="#222" fill-opacity="0.13266666666667" stroke="#000" stroke-opacity="0.02" transform="translate(36.666666666667, 95.262794416288) rotate(180, 18.333333333333, 15.877132402715)"/><polyline points="18.333333333333, 0, 36.666666666667, 31.754264805429, 0, 31.754264805429, 18.333333333333, 0" fill="#ddd" fill-opacity="0.037333333333333" stroke="#000" stroke-opacity="0.02" transform="translate(55, 95.262794416288) rotate(0, 18.333333333333, 15.877132402715)"/><polyline points="18.333333333333, 0, 36.666666666667, 31.754264805429, 0, 31.754264805429, 18.333333333333, 0" fill="#ddd" fill-opacity="0.072" stroke="#000" stroke-opacity="0.02" transform="translate(73.333333333333, 95.262794416288) rotate(180, 18.333333333333, 15.877132402715)"/><polyline points="18.333333333333, 0, 36.666666666667, 31.754264805429, 0, 31.754264805429, 18.333333333333, 0" fill="#ddd" fill-opacity="0.037333333333333" stroke="#000" stroke-opacity="0.02" transform="translate(-18.333333333333, 127.01705922172) rotate(180, 18.333333333333, 15.877132402715)"/><polyline points="18.333333333333, 0, 36.666666666667, 31.754264805429, 0, 31.754264805429, 18.333333333333, 0" fill="#ddd" fill-opacity="0.037333333333333" stroke="#000" stroke-opacity="0.02" transform="translate(91.666666666667, 127.01705922172) rotate(180, 18.333333333333, 15.877132402715)"/><polyline points="18.333333333333, 0, 36.666666666667, 31.754264805429, 0, 31.754264805429, 18.333333333333, 0" fill="#ddd" fill-opacity="0.14133333333333" stroke="#000" stroke-opacity="0.02" transform="translate(0, 127.01705922172) rotate(0, 18.333333333333, 15.877132402715)"/><polyline points="18.333333333333, 0, 36.666666666667, 31.754264805429, 0, 31.754264805429, 18.333333333333, 0" fill="#222" fill-opacity="0.098" stroke="#000" stroke-opacity="0.02" transform="translate(18.333333333333, 127.01705922172) rotate(180, 18.333333333333, 15.877132402715)"/><polyline points="18.333333333333, 0, 36.666666666667, 31.754264805429, 0, 31.754264805429, 18.333333333333, 0" fill="#222" fill-opacity="0.11533333333333" stroke="#000" stroke-opacity="0.02" transform="translate(36.666666666667, 127.01705922172) rotate(0, 18.333333333333, 15.877132402715)"/><polyline points="18.333333333333, 0, 36.666666666667, 31.754264805429, 0, 31.754264805429, 18.333333333333, 0" fill="#ddd" fill-opacity="0.02" stroke="#000" stroke-opacity="0.02" transform="translate(55, 127.01705922172) rotate(180, 18.333333333333, 15.877132402715)"/><polyline points="18.333333333333, 0, 36.666666666667, 31.754264805429, 0, 31.754264805429, 18.333333333333, 0" fill="#ddd" fill-opacity="0.072" stroke="#000" stroke-opacity="0.02" transform="translate(73.333333333333, 127.01705922172) rotate(0, 18.333333333333, 15.877132402715)"/><polyline points="18.333333333333, 0, 36.666666666667, 31.754264805429, 0, 31.754264805429, 18.333333333333, 0" fill="#222" fill-opacity="0.098" stroke="#000" stroke-opacity="0.02" transform="translate(-18.333333333333, 158.77132402715) rotate(0, 18.333333333333, 15.877132402715)"/><polyline points="18.333333333333, 0, 36.666666666667, 31.754264805429, 0, 31.754264805429, 18.333333333333, 0" fill="#222" fill-opacity="0.098" stroke="#000" stroke-opacity="0.02" transform="translate(91.666666666667, 158.77132402715) rotate(0, 18.333333333333, 15.877132402715)"/><polyline points="18.333333333333, 0, 36.666666666667, 31.754264805429, 0, 31.754264805429, 18.333333333333, 0" fill="#222" fill-opacity="0.11533333333333" stroke="#000" stroke-opacity="0.02" transform="translate(0, 158.77132402715) rotate(180, 18.333333333333, 15.877132402715)"/><polyline points="18.333333333333, 0, 36.666666666667, 31.754264805429, 0, 31.754264805429, 18.333333333333, 0" fill="#222" fill-opacity="0.046" stroke="#000" stroke-opacity="0.02" transform="translate(18.333333333333, 158.77132402715) rotate(0, 18.333333333333, 15.877132402715)"/><polyline points="18.333333333333, 0, 36.666666666667, 31.754264805429, 0, 31.754264805429, 18.333333333333, 0" fill="#222" fill-opacity="0.063333333333333" stroke="#000" stroke-opacity="0.02" transform="translate(36.666666666667, 158.77132402715) rotate(180, 18.333333333333, 15.877132402715)"/><polyline points="18.333333333333, 0, 36.666666666667, 31.754264805429, 0, 31.754264805429, 18.333333333333, 0" fill="#ddd" fill-opacity="0.054666666666667" stroke="#000" stroke-opacity="0.02" transform="translate(55, 158.77132402715) rotate(0, 18.333333333333, 15.877132402715)"/><polyline points="18.333333333333, 0, 36.666666666667, 31.754264805429, 0, 31.754264805429, 18.333333333333, 0" fill="#222" fill-opacity="0.13266666666667" stroke="#000" stroke-opacity="0.02" transform="translate(73.333333333333, 158.77132402715) rotate(180, 18.333333333333, 15.877132402715)"/></svg>