<?xml version="1.0" encoding="UTF-8"?>
<svg xmlns="http://www.w3.org/2000/svg" width="240" height="240"><rect x="0" y="0" width="100%" height="100%" fill="rgb(223, 230, 233)"/><rect x="0" y="0" width="40" height="40" fill="#222" fill-opacity="0.098" stroke="#000" stroke-opacity="0.02"/><rect x="40" y="0" width="40" height="40" fill="#222" fill-opacity="0.028666666666667" stroke="#000" stroke-opacity="0.02"/><rect x="80" y="0" width="40" height="40" fill="#222" fill-opacity="0.046" stroke="#000" stroke-opacity="0.02"/><rect x="120" y="0" width="40" height="40" fill="#222" fill-opacity="0.11533333333333" stroke="#000" stroke-opacity="0.02"/><rect x="160" y="0" width="40" height="40" fill="#222" fill-opacity="0.11533333333333" stroke="#000" stroke-opacity="0.02"/><rect x="200" y="0" width="40" height="40" fill="#ddd" fill-opacity="0.054666666666667" stroke="#000" stroke-opacity="0.02"/><rect x="0" y="40" width="40" height="40" fill="#222" fill-opacity="0.13266666666667" stroke="#000" stroke-opacity="0.02"/><rect x="40" y="40" width="40" height="40" fill="#ddd" fill-opacity="0.02" stroke="#000" stroke-opacity="0.02"/><rect x="80" y="40" width="40" height="40" fill="#222" fill-opacity="0.046" stroke="#000" stroke-opacity="0.02"/><rect x="120" y="40" width="40" height="40" fill="#222" fill-opacity="0.080666666666667" stroke="#000" stroke-opacity="0.02"/><rect x="160" y="40" width="40" height="40" fill="#ddd" fill-opacity="0.037333333333333" stroke="#000" stroke-opacity="0.02"/><rect x="200" y="40" width="40" height="40" fill="#222" fill-opacity="0.028666666666667" stroke="#000" stroke-opacity="0.02"/><rect x="0" y="80" width="40" height="40" fill="#222" fill-opacity="0.046" stroke="#000" stroke-opacity="0.02"/><rect x="40" y="80" width="40" height="40" fill="#ddd" fill-opacity="0.14133333333333" stroke="#000" stroke-opacity="0.02"/><rect x="80" y="80" width="40" height="40" fill="#ddd" fill-opacity="0.14133333333333" stroke="#000" stroke-opacity="0.02"/><rect x="120" y="80" width="40" height="40" fill="#222" fill-opacity="0.080666666666667" stroke="#000" stroke-opacity="0.02"/><rect x="160" y="80" width="40" height="40" fill="#ddd" fill-opacity="0.054666666666667" stroke="#000" stroke-opacity="0.02"/><rect x="200" y="80" width="40" height="40" fill="#ddd" fill-opacity="0.054666666666667" stroke="#000" stroke-opacity="0.02"/><rect x="0" y="120" width="40" height="40" fill="#ddd" fill-opacity="0.054666666666667" stroke="#000" stroke-opacity="0.02"/><rect x="40" y="120" width="40" height="40" fill="#222" fill-opacity="0.028666666666667" stroke="#000" stroke-opacity="0.02"/><rect x="80" y="120" width="40" height="40" fill="#222" fill-opacity="0.098" stroke="#000" stroke-opacity="0.02"/><rect x="120" y="120" width="40" height="40" fill="#ddd" fill-opacity="0.10666666666667" stroke="#000" stroke-opacity="0.02"/><rect x="160" y="120" width="40" height="40" fill="#ddd" fill-opacity="0.124" stroke="#000" stroke-opacity="0.02"/><rect x="200" y="120" width="40" height="40" fill="#ddd" fill-opacity="0.037333333333333" stroke="#000" stroke-opacity="0.02"/><rect x="0" y="160" width="40" height="40" fill="#ddd" fill-opacity="0.037333333333333" stroke="#000" stroke-opacity="0.02"/><rect x="40" y="160" width="40" height="40" fill="#222" fill-opacity="0.046" stroke="#000" stroke-opacity="0.02"/><rect x="80" y="160" width="40" height="40" fill="#ddd" fill-opacity="0.124" stroke="#000" stroke-opacity="0.02"/><rect x="120" y="160" width="40" height="40" fill="#ddd" fill-opacity="0.14133333333333" stroke="#000" stroke-opacity="0.02"/><rect x="160" y="160" width="40" height="40" fill="#222" fill-opacity="0.046" stroke="#000" stroke-opacity="0.02"/><rect x="200" y="160" width="40" height="40" fill="#222" fill-opacity="0.13266666666667" stroke="#000" stroke-opacity="0.02"/><rect x="0" y="200" width="40" height="40" fill="#ddd" fill-opacity="0.072" stroke="#000" stroke-opacity="0.02"/><rect x="40" y="200" width="40" height="40" fill="#ddd" fill-opacity="0.14133333333333" stroke="#000" stroke-opacity="0.02"/><rect x="80" y="200" width="40" height="40" fill="#ddd" fill-opacity="0.089333333333333" stroke="#000" stroke-opacity="0.02"/><rect x="120" y="200" width="40" height="40" fill="#ddd" fill-opacity="0.02" stroke="#000" stroke-opacity="0.02"/><rect x="160" y="200" width="40" height="40" fill="#222" fill-opacity="0.028666666666667" stroke="#000" stroke-opacity="0.02"/><rect x="200" y="200" width="40" height="40" fill="#ddd" fill-opacity="0.14133333333333" stroke="#000" stroke-opacity="0.02"/></svg>