<?xml version="1.0" encoding="UTF-8"?>
<svg xmlns="http://www.w3.org/2000/svg" width="180" height="108"><rect x="0" y="0" width="100%" height="100%" fill="rgb(0, 184, 148)"/><path d="M0 100 C 31.5 0, 59 0, 90 100 S 149 200, 180 100 S 239 0, 270, 100" fill="none" stroke="#ddd" style="opacity:0.054666666666667;stroke-width:3px;" transform="translate(-45, -150)"/><path d="M0 100 C 31.5 0, 59 0, 90 100 S 149 200, 180 100 S 239 0, 270, 100" fill="none" stroke="#ddd" style="opacity:0.054666666666667;stroke-width:3px;" transform="translate(-45, -42)"/><path d="M0 100 C 31.5 0, 59 0, 90 100 S 149 200, 180 100 S 239 0, 270, 100" fill="none" stroke="#222" style="opacity:0.15;stroke-width:3px;" transform="translate(-45, -147)"/><path d="M0 100 C 31.5 0, 59 0, 90 100 S 149 200, 180 100 S 239 0, 270, 100" fill="none" stroke="#222" style="opacity:0.15;stroke-width:3px;" transform="translate(-45, -39)"/><path d="M0 100 C 31.5 0, 59 0, 90 100 S 149 200, 180 100 S 239 0, 270, 100" fill="none" stroke="#ddd" style="opacity:0.02;stroke-width:3px;" transform="translate(-45, -144)"/><path d="M0 100 C 31.5 0, 59 0, 90 100 S 149 200, 180 100 S 239 0, 270, 100" fill="none" stroke="#ddd" style="opacity:0.02;stroke-width:3px;" transform="translate(-45, -36)"/><path d="M0 100 C 31.5 0, 59 0, 90 100 S 149 200, 180 100 S 239 0, 270, 100" fill="none" stroke="#ddd" style="opacity:0.14133333333333;stroke-width:3px;" transform="translate(-45, -141)"/><path d="M0 100 C 31.5 0, 59 0, 90 100 S 149 200, 180 100 S 239 0, 270, 100" fill="none" stroke="#ddd" style="opacity:0.14133333333333;stroke-width:3px;" transform="translate(-45, -33)"/><path d="M0 100 C 31.5 0, 59 0, 90 100 S 149 200, 180 100 S 239 0, 270, 100" fill="none" stroke="#222" style="opacity:0.080666666666667;stroke-width:3px;" transform="translate(-45, -138)"/><path d="M0 100 C 31.5 0, 59 0, 90 100 S 149 200, 180 100 S 239 0, 270, 100" fill="none" stroke="#222" style="opacity:0.080666666666667;stroke-width:3px;" transform="translate(-45, -30)"/><path d="M0 100 C 31.5 0, 59 0, 90 100 S 149 200, 180 100 S 239 0, 270, 100" fill="none" stroke="#ddd" style="opacity:0.054666666666667;stroke-width:3px;" transform="translate(-45, -135)"/><path d="M0 100 C 31.5 0, 59 0, 90 100 S 149 200, 180 100 S 239 0, 270, 100" fill="none" stroke="#ddd" style="opacity:0.054666666666667;stroke-width:3px;" transform="translate(-45, -27)"/><path d="M0 100 C 31.5 0, 59 0, 90 100 S 149 200, 180 100 S 239 0, 270, 100" fill="none" stroke="#222" style="opacity:0.028666666666667;stroke-width:3px;" transform="translate(-45, -132)"/><path d="M0 100 C 31.5 0, 59 0, 90 100 S 149 200, 180 100 S 239 0, 270, 100" fill="none" stroke="#222" style="opacity:0.028666666666667;stroke-width:3px;" transform="translate(-45, -24)"/><path d="M0 100 C 31.5 0, 59 0, 90 100 S 149 200, 180 100 S 239 0, 270, 100" fill="none" stroke="#222" style="opacity:0.098;stroke-width:3px;" transform="translate(-45, -129)"/><path d="M0 100 C 31.5 0, 59 0, 90 100 S 149 200, 180 100 S 239 0, 270, 100" fill="none" stroke="#222" style="opacity:0.098;stroke-width:3px;" transform="translate(-45, -21)"/><path d="M0 100 C 31.5 0, 59 0, 90 100 S 149 200, 180 100 S 239 0, 270, 100" fill="none" stroke="#ddd" style="opacity:0.072;stroke-width:3px;" transform="translate(-45, -126)"/><path d="M0 100 C 31.5 0, 59 0, 90 100 S 149 200, 180 100 S 239 0, 270, 100" fill="none" stroke="#ddd" style="opacity:0.072;stroke-width:3px;" transform="translate(-45, -18)"/><path d="M0 100 C 31.5 0, 59 0, 90 100 S 149 200, 180 100 S 239 0, 270, 100" fill="none" stroke="#ddd" style="opacity:0.072;stroke-width:3px;" transform="translate(-45, -123)"/><path d="M0 100 C 31.5 0, 59 0, 90 100 S 149 200, 180 100 S 239 0, 270, 100" fill="none" stroke="#ddd" style="opacity:0.072;stroke-width:3px;" transform="translate(-45, -15)"/><path d="M0 100 C 31.5 0, 59 0, 90 100 S 149 200, 180 100 S 239 0, 270, 100" fill="none" stroke="#222" style="opacity:0.063333333333333;stroke-width:3px;" transform="translate(-45, -120)"/><path d="M0 100 C 31.5 0, 59 0, 90 100 S 149 200, 180 100 S 239 0, 270, 100" fill="none" stroke="#222" style="opacity:0.063333333333333;stroke-width:3px;" transform="translate(-45, -12)"/><path d="M0 100 C 31.5 0, 59 0, 90 100 S 149 200, 180 100 S 239 0, 270, 100" fill="none" stroke="#222" style="opacity:0.046;stroke-width:3px;" transform="translate(-45, -117)"/><path d="M0 100 C 31.5 0, 59 0, 90 100 S 149 200, 180 100 S 239 0, 270, 100" fill="none" stroke="#222" style="opacity:0.046;stroke-width:3px;" transform="translate(-45, -9)"/><path d="M0 100 C 31.5 0, 59 0, 90 100 S 149 200, 180 100 S 239 0, 270, 100" fill="none" stroke="#ddd" style="opacity:0.054666666666667;stroke-width:3px;" transform="translate(-45, -114)"/><path d="M0 100 C 31.5 0, 59 0, 90 100 S 149 200, 180 100 S 239 0, 270, 100" fill="none" stroke="#ddd" style="opacity:0.054666666666667;stroke-width:3px;" transform="translate(-45, -6)"/><path d="M0 100 C 31.5 0, 59 0, 90 100 S 149 200, 180 100 S 239 0, 270, 100" fill="none" stroke="#222" style="opacity:0.063333333333333;stroke-width:3px;" transform="translate(-45, -111)"/><path d="M0 100 C 31.5 0, 59 0, 90 100 S 149 200, 180 100 S 239 0, 270, 100" fill="none" stroke="#222" style="opacity:0.063333333333333;stroke-width:3px;" transform="translate(-45, -3)"/><path d="M0 100 C 31.5 0, 59 0, 90 100 S 149 200, 180 100 S 239 0, 270, 100" fill="none" stroke="#ddd" style="opacity:0.054666666666667;stroke-width:3px;" transform="translate(-45, -108)"/><path d="M0 100 C 31.5 0, 59 0, 90 100 S 149 200, 180 100 S 239 0, 270, 100" fill="none" stroke="#ddd" style="opacity:0.054666666666667;stroke-width:3px;" transform="translate(-45, 0)"/><path d="M0 100 C 31.5 0, 59 0, 90 100 S 149 200, 180 100 S 239 0, 270, 100" fill="none" stroke="#ddd" style="opacity:0.089333333333333;stroke-width:3px;" transform="translate(-45, -105)"/><path d="M0 100 C 31.5 0, 59 0, 90 100 S 149 200, 180 100 S 239 0, 270, 100" fill="none" stroke="#ddd" style="opacity:0.089333333333333;stroke-width:3px;" transform="translate(-45, 3)"/><path d="M0 100 C 31.5 0, 59 0, 90 100 S 149 200, 180 100 S 239 0, 270, 100" fill="none" stroke="#ddd" style="opacity:0.10666666666667;stroke-width:3px;" transform="translate(-45, -102)"/><path d="M0 100 C 31.5 0, 59 0, 90 100 S 149 200, 180 100 S 239 0, 270, 100" fill="none" stroke="#ddd" style="opacity:0.10666666666667;stroke-width:3px;" transform="translate(-45, 6)"/><path d="M0 100 C 31.5 0, 59 0, 90 100 S 149 200, 180 100 S 239 0, 270, 100" fill="none" stroke="#222" style="opacity:0.046;stroke-width:3px;" transform="translate(-45, -99)"/><path d="M0 100 C 31.5 0, 59 0, 90 100 S 149 200, 180 100 S 239 0, 270, 100" fill="none" stroke="#222" style="opacity:0.046;stroke-width:3px;" transform="translate(-45, 9)"/><path d="M0 100 C 31.5 0, 59 0, 90 100 S 149 200, 180 100 S 239 0, 270, 100" fill="none" stroke="#ddd" style="opacity:0.10666666666667;stroke-width:3px;" transform="translate(-45, -96)"/><path d="M0 100 C 31.5 0, 59 0, 90 100 S 149 200, 180 100 S 239 0, 270, 100" fill="none" stroke="#ddd" style="opacity:0.10666666666667;stroke-width:3px;" transform="translate(-45, 12)"/><path d="M0 100 C 31.5 0, 59 0, 90 100 S 149 200, 180 100 S 239 0, 270, 100" fill="none" stroke="#222" style="opacity:0.046;stroke-width:3px;" transform="translate(-45, -93)"/><path d="M0 100 C 31.5 0, 59 0, 90 100 S 149 200, 180 100 S 239 0, 270, 100" fill="none" stroke="#222" style="opacity:0.046;stroke-width:3px;" transform="translate(-45, 15)"/><path d="M0 100 C 31.5 0, 59 0, 90 100 S 149 200, 180 100 S 239 0, 270, 100" fill="none" stroke="#ddd" style="opacity:0.054666666666667;stroke-width:3px;" transform="translate(-45, -90)"/><path d="M0 100 C 31.5 0, 59 0, 90 100 S 149 200, 180 100 S 239 0, 270, 100" fill="none" stroke="#ddd" style="opacity:0.054666666666667;stroke-width:3px;" transform="translate(-45, 18)"/><path d="M0 100 C 31.5 0, 59 0, 90 100 S 149 200, 180 100 S 239 0, 270, 100" fill="none" stroke="#222" style="opacity:0.028666666666667;stroke-width:3px;" transform="translate(-45, -87)"/><path d="M0 100 C 31.5 0, 59 0, 90 100 S 149 200, 180 100 S 239 0, 270, 100" fill="none" stroke="#222" style="opacity:0.028666666666667;stroke-width:3px;" transform="translate(-45, 21)"/><path d="M0 100 C 31.5 0, 59 0, 90 100 S 149 200, 180 100 S 239 0, 270, 100" fill="none" stroke="#ddd" style="opacity:0.089333333333333;stroke-width:3px;" transform="translate(-45, -84)"/><path d="M0 100 C 31.5 0, 59 0, 90 100 S 149 200, 180 100 S 239 0, 270, 100" fill="none" stroke="#ddd" style="opacity:0.089333333333333;stroke-width:3px;" transform="translate(-45, 24)"/><path d="M0 100 C 31.5 0, 59 0, 90 100 S 149 200, 180 100 S 239 0, 270, 100" fill="none" stroke="#222" style="opacity:0.11533333333333;stroke-width:3px;" transform="translate(-45, -81)"/><path d="M0 100 C 31.5 0, 59 0, 90 100 S 149 200, 180 100 S 239 0, 270, 100" fill="none" stroke="#222" style="opacity:0.11533333333333;stroke-width:3px;" transform="translate(-45, 27)"/><path d="M0 100 C 31.5 0, 59 0, 90 100 S 149 200, 180 100 S 239 0, 270, 100" fill="none" stroke="#222" style="opacity:0.080666666666667;stroke-width:3px;" transform="translate(-45, -78)"/><path d="M0 100 C 31.5 0, 59 0, 90 100 S 149 200, 180 100 S 239 0, 270, 100" fill="none" stroke="#222" style="opacity:0.080666666666667;stroke-width:3px;" transform="translate(-45, 30)"/><path d="M0 100 C 31.5 0, 59 0, 90 100 S 149 200, 180 100 S 239 0, 270, 100" fill="none" stroke="#222" style="opacity:0.098;stroke-width:3px;" transform="translate(-45, -75)"/><path d="M0 100 C 31.5 0, 59 0, 90 100 S 149 200, 180 100 S 239 0, 270, 100" fill="none" stroke="#222" style="opacity:0.098;stroke-width:3px;" transform="translate(-45, 33)"/><path d="M0 100 C 31.5 0, 59 0, 90 100 S 149 200, 180 100 S 239 0, 270, 100" fill="none" stroke="#222" style="opacity:0.098;stroke-width:3px;" transform="translate(-45, -72)"/><path d="M0 100 C 31.5 0, 59 0, 90 100 S 149 200, 180 100 S 239 0, 270, 100" fill="none" stroke="#222" style="opacity:0.098;stroke-width:3px;" transform="translate(-45, 36)"/><path d="M0 100 C 31.5 0, 59 0, 90 100 S 149 200, 180 100 S 239 0, 270, 100" fill="none" stroke="#ddd" style="opacity:0.124;stroke-width:3px;" transform="translate(-45, -69)"/><path d="M0 100 C 31.5 0, 59 0, 90 100 S 149 200, 180 100 S 239 0, 270, 100" fill="none" stroke="#ddd" style="opacity:0.124;stroke-width:3px;" transform="translate(-45, 39)"/><path d="M0 100 C 31.5 0, 59 0, 90 100 S 149 200, 180 100 S 239 0, 270, 100" fill="none" stroke="#ddd" style="opacity:0.02;stroke-width:3px;" transform="translate(-45, -66)"/><path d="M0 100 C 31.5 0, 59 0, 90 100 S 149 200, 180 100 S 239 0, 270, 100" fill="none" stroke="#ddd" style="opacity:0.02;stroke-width:3px;" transform="translate(-45, 42)"/><path d="M0 100 C 31.5 0, 59 0, 90 100 S 149 200, 180 100 S 239 0, 270, 100" fill="none" stroke="#222" style="opacity:0.11533333333333;stroke-width:3px;" transform="translate(-45, -63)"/><path d="M0 100 C 31.5 0, 59 0, 90 100 S 149 200, 180 100 S 239 0, 270, 100" fill="none" stroke="#222" style="opacity:0.11533333333333;stroke-width:3px;" transform="translate(-45, 45)"/><path d="M0 100 C 31.5 0, 59 0, 90 100 S 149 200, 180 100 S 239 0, 270, 100" fill="none" stroke="#ddd" style="opacity:0.02;stroke-width:3px;" transform="translate(-45, -60)"/><path d="M0 100 C 31.5 0, 59 0, 90 100 S 149 200, 180 100 S 239 0, 270, 100" fill="none" stroke="#ddd" style="opacity:0.02;stroke-width:3px;" transform="translate(-45, 48)"/><path d="M0 100 C 31.5 0, 59 0, 90 100 S 149 200, 180 100 S 239 0, 270, 100" fill="none" stroke="#222" style="opacity:0.046;stroke-width:3px;" transform="translate(-45, -57)"/><path d="M0 100 C 31.5 0, 59 0, 90 100 S 149 200, 180 100 S 239 0, 270, 100" fill="none" stroke="#222" style="opacity:0.046;stroke-width:3px;" transform="translate(-45, 51)"/><path d="M0 100 C 31.5 0, 59 0, 90 100 S 149 200, 180 100 S 239 0, 270, 100" fill="none" stroke="#222" style="opacity:0.11533333333333;stroke-width:3px;" transform="translate(-45, -54)"/><path d="M0 100 C 31.5 0, 59 0, 90 100 S 149 200, 180 100 S 239 0, 270, 100" fill="none" stroke="#222" style="opacity:0.11533333333333;stroke-width:3px;" transform="translate(-45, 54)"/><path d="M0 100 C 31.5 0, 59 0, 90 100 S 149 200, 180 100 S 239 0, 270, 100" fill="none" stroke="#ddd" style="opacity:0.072;stroke-width:3px;" transform="translate(-45, -51)"/><path d="M0 100 C 31.5 0, 59 0, 90 100 S 149 200, 180 100 S 239 0, 270, 100" fill="none" stroke="#ddd" style="opacity:0.072;stroke-width:3px;" transform="translate(-45, 57)"/><path d="M0 100 C 31.5 0, 59 0, 90 100 S 149 200, 180 100 S 239 0, 270, 100" fill="none" stroke="#222" style="opacity:0.028666666666667;stroke-width:3px;" transform="translate(-45, -48)"/><path d="M0 100 C 31.5 0, 59 0, 90 100 S 149 200, 180 100 S 239 0, 270, 100" fill="none" stroke="#222" style="opacity:0.028666666666667;stroke-width:3px;" transform="translate(-45, 60)"/><path d="M0 100 C 31.5 0, 59 0, 90 100 S 149 200, 180 100 S 239 0, 270, 100" fill="none" stroke="#222" style="opacity:0.13266666666667;stroke-width:3px;" transform="translate(-45, -45)"/><path d="M0 100 C 31.5 0, 59 0, 90 100 S 149 200, 180 100 S 239 0, 270, 100" fill="none" stroke="#222" style="opacity:0.13266666666667;stroke-width:3px;" transform="translate(-45, 63)"/></svg>