<?xml version="1.0" encoding="UTF-8"?>
<svg xmlns="http://www.w3.org/2000/svg" width="442" height="442"><rect x="0" y="0" width="100%" height="100%" fill="rgb(108, 92, 231)"/><rect x="0" y="13" width="100%" height="11" opacity="0.072" fill="#ddd"/><rect x="0" y="39" width="100%" height="8" opacity="0.046" fill="#222"/><rect x="0" y="58" width="100%" height="5" opacity="0.02" fill="#ddd"/><rect x="0" y="68" width="100%" height="5" opacity="0.02" fill="#ddd"/><rect x="0" y="93" width="100%" height="9" opacity="0.054666666666667" fill="#ddd"/><rect x="0" y="109" width="100%" height="11" opacity="0.072" fill="#ddd"/><rect x="0" y="131" width="100%" height="5" opacity="0.02" fill="#ddd"/><rect x="0" y="154" width="100%" height="17" opacity="0.124" fill="#ddd"/><rect x="0" y="180" width="100%" height="20" opacity="0.15" fill="#222"/><rect x="0" y="214" width="100%" height="8" opacity="0.046" fill="#222"/><rect x="0" y="234" width="100%" height="5" opacity="0.02" fill="#ddd"/><rect x="0" y="258" width="100%" height="10" opacity="0.063333333333333" fill="#222"/><rect x="0" y="279" width="100%" height="15" opacity="0.10666666666667" fill="#ddd"/><rect x="0" y="312" width="100%" height="7" opacity="0.037333333333333" fill="#ddd"/><rect x="0" y="324" width="100%" height="12" opacity="0.080666666666667" fill="#222"/><rect x="0" y="355" width="100%" height="11" opacity="0.072" fill="#ddd"/><rect x="0" y="384" width="100%" height="12" opacity="0.080666666666667" fill="#222"/><rect x="0" y="403" width="100%" height="10" opacity="0.063333333333333" fill="#222"/><rect x="0" y="431" width="100%" height="11" opacity="0.072" fill="#ddd"/><rect x="13" y="0" width="11" height="100%" opacity="0.072" fill="#ddd"/><rect x="39" y="0" width="8" height="100%" opacity="0.046" fill="#222"/><rect x="58" y="0" width="5" height="100%" opacity="0.02" fill="#ddd"/><rect x="68" y="0" width="5" height="100%" opacity="0.02" fill="#ddd"/><rect x="93" y="0" width="9" height="100%" opacity="0.054666666666667" fill="#ddd"/><rect x="109" y="0" width="11" height="100%" opacity="0.072" fill="#ddd"/><rect x="131" y="0" width="5" height="100%" opacity="0.02" fill="#ddd"/><rect x="154" y="0" width="17" height="100%" opacity="0.124" fill="#ddd"/><rect x="180" y="0" width="20" height="100%" opacity="0.15" fill="#222"/><rect x="214" y="0" width="8" height="100%" opacity="0.046" fill="#222"/><rect x="234" y="0" width="5" height="100%" opacity="0.02" fill="#ddd"/><rect x="258" y="0" width="10" height="100%" opacity="0.063333333333333" fill="#222"/><rect x="279" y="0" width="15" height="100%" opacity="0.10666666666667" fill="#ddd"/><rect x="312" y="0" width="7" height="100%" opacity="0.037333333333333" fill="#ddd"/><rect x="324" y="0" width="12" height="100%" opacity="0.080666666666667" fill="#222"/><rect x="355" y="0" width="11" height="100%" opacity="0.072" fill="#ddd"/><rect x="384" y="0" width="12" height="100%" opacity="0.080666666666667" fill="#222"/><rect x="403" y="0" width="10" height="100%" opacity="0.063333333333333" fill="#222"/><rect x="431" y="0" width="11" height="100%" opacity="0.072" fill="#ddd"/></svg>