<?xml version="1.0" encoding="UTF-8"?>
<svg xmlns="http://www.w3.org/2000/svg" width="340" height="340"><rect x="0" y="0" width="100%" height="100%" fill="rgb(178, 190, 195)"/><polyline points="18.7,0,37.966666666667,0,56.666666666667,18.7,56.666666666667,37.966666666667,37.966666666667,56.666666666667,18.7,56.666666666667,0,37.966666666667,0,18.7,18.7,0" fill="#ddd" fill-opacity="0.14133333333333" stroke="#000" stroke-opacity="0.02" transform="translate(0, 0)"/><polyline points="18.7,0,37.966666666667,0,56.666666666667,18.7,56.666666666667,37.966666666667,37.966666666667,56.666666666667,18.7,56.666666666667,0,37.966666666667,0,18.7,18.7,0" fill="#ddd" fill-opacity="0.02" stroke="#000" stroke-opacity="0.02" transform="translate(56.666666666667, 0)"/><polyline points="18.7,0,37.966666666667,0,56.666666666667,18.7,56.666666666667,37.966666666667,37.966666666667,56.666666666667,18.7,56.666666666667,0,37.966666666667,0,18.7,18.7,0" fill="#ddd" fill-opacity="0.054666666666667" stroke="#000" stroke-opacity="0.02" transform="translate(113.33333333333, 0)"/><polyline points="18.7,0,37.966666666667,0,56.666666666667,18.7,56.666666666667,37.966666666667,37.966666666667,56.666666666667,18.7,56.666666666667,0,37.966666666667,0,18.7,18.7,0" fill="#ddd" fill-opacity="0.054666666666667" stroke="#000" stroke-opacity="0.02" transform="translate(170, 0)"/><polyline points="18.7,0,37.966666666667,0,56.666666666667,18.7,56.666666666667,37.966666666667,37.966666666667,56.666666666667,18.7,56.666666666667,0,37.966666666667,0,18.7,18.7,0" fill="#ddd" fill-opacity="0.089333333333333" stroke="#000" stroke-opacity="0.02" transform="translate(226.66666666667, 0)"/><polyline points="18.7,0,37.966666666667,0,56.666666666667,18.7,56.666666666667,37.966666666667,37.966666666667,56.666666666667,18.7,56.666666666667,0,37.966666666667,0,18.7,18.7,0" fill="#222" fill-opacity="0.046" stroke="#000" stroke-opacity="0.02" transform="translate(283.33333333333, 0)"/><polyline points="18.7,0,37.966666666667,0,56.666666666667,18.7,56.666666666667,37.966666666667,37.966666666667,56.666666666667,18.7,56.666666666667,0,37.966666666667,0,18.7,18.7,0" fill="#222" fill-opacity="0.15" stroke="#000" stroke-opacity="0.02" transform="translate(0, 56.666666666667)"/><polyline points="18.7,0,37.966666666667,0,56.666666666667,18.7,56.666666666667,37.966666666667,37.966666666667,56.666666666667,18.7,56.666666666667,0,37.966666666667,0,18.7,18.7,0" fill="#ddd" fill-opacity="0.10666666666667" stroke="#000" stroke-opacity="0.02" transform="translate(56.666666666667, 56.666666666667)"/><polyline points="18.7,0,37.966666666667,0,56.666666666667,18.7,56.666666666667,37.966666666667,37.966666666667,56.666666666667,18.7,56.666666666667,0,37.966666666667,0,18.7,18.7,0" fill="#ddd" fill-opacity="0.037333333333333" stroke="#000" stroke-opacity="0.02" transform="translate(113.33333333333, 56.666666666667)"/><polyline points="18.7,0,37.966666666667,0,56.666666666667,18.7,56.666666666667,37.966666666667,37.966666666667,56.666666666667,18.7,56.666666666667,0,37.966666666667,0,18.7,18.7,0" fill="#222" fill-opacity="0.098" stroke="#000" stroke-opacity="0.02" transform="translate(170, 56.666666666667)"/><polyline points="18.7,0,37.966666666667,0,56.666666666667,18.7,56.666666666667,37.966666666667,37.966666666667,56.666666666667,18.7,56.666666666667,0,37.966666666667,0,18.7,18.7,0" fill="#ddd" fill-opacity="0.124" stroke="#000" stroke-opacity="0.02" transform="translate(226.66666666667, 56.666666666667)"/><polyline points="18.7,0,37.966666666667,0,56.666666666667,18.7,56.666666666667,37.966666666667,37.966666666667,56.666666666667,18.7,56.666666666667,0,37.966666666667,0,18.7,18.7,0" fill="#ddd" fill-opacity="0.14133333333333" stroke="#000" stroke-opacity="0.02" transform="translate(283.33333333333, 56.666666666667)"/><polyline points="18.7,0,37.966666666667,0,56.666666666667,18.7,56.666666666667,37.966666666667,37.966666666667,56.666666666667,18.7,56.666666666667,0,37.966666666667,0,18.7,18.7,0" fill="#ddd" fill-opacity="0.037333333333333" stroke="#000" stroke-opacity="0.02" transform="translate(0, 113.33333333333)"/><polyline points="18.7,0,37.966666666667,0,56.666666666667,18.7,56.666666666667,37.966666666667,37.966666666667,56.666666666667,18.7,56.666666666667,0,37.966666666667,0,18.7,18.7,0" fill="#ddd" fill-opacity="0.10666666666667" stroke="#000" stroke-opacity="0.02" transform="translate(56.666666666667, 113.33333333333)"/><polyline points="18.7,0,37.966666666667,0,56.666666666667,18.7,56.666666666667,37.966666666667,37.966666666667,56.666666666667,18.7,56.666666666667,0,37.966666666667,0,18.7,18.7,0" fill="#ddd" fill-opacity="0.072" stroke="#000" stroke-opacity="0.02" transform="translate(113.33333333333, 113.33333333333)"/><polyline points="18.7,0,37.966666666667,0,56.666666666667,18.7,56.666666666667,37.966666666667,37.966666666667,56.666666666667,18.7,56.666666666667,0,37.966666666667,0,18.7,18.7,0" fill="#ddd" fill-opacity="0.037333333333333" stroke="#000" stroke-opacity="0.02" transform="translate(170, 113.33333333333)"/><polyline points="18.7,0,37.966666666667,0,56.666666666667,18.7,56.666666666667,37.966666666667,37.966666666667,56.666666666667,18.7,56.666666666667,0,37.966666666667,0,18.7,18.7,0" fill="#222" fill-opacity="0.028666666666667" stroke="#000" stroke-opacity="0.02" transform="translate(226.66666666667, 113.33333333333)"/><polyline points="18.7,0,37.966666666667,0,56.666666666667,18.7,56.666666666667,37.966666666667,37.966666666667,56.666666666667,18.7,56.666666666667,0,37.966666666667,0,18.7,18.7,0" fill="#ddd" fill-opacity="0.037333333333333" stroke="#000" stroke-opacity="0.02" transform="translate(283.33333333333, 113.33333333333)"/><polyline points="18.7,0,37.966666666667,0,56.666666666667,18.7,56.666666666667,37.966666666667,37.966666666667,56.666666666667,18.7,56.666666666667,0,37.966666666667,0,18.7,18.7,0" fill="#222" fill-opacity="0.098" stroke="#000" stroke-opacity="0.02" transform="translate(0, 170)"/><polyline points="18.7,0,37.966666666667,0,56.666666666667,18.7,56.666666666667,37.966666666667,37.966666666667,56.666666666667,18.7,56.666666666667,0,37.966666666667,0,18.7,18.7,0" fill="#ddd" fill-opacity="0.124" stroke="#000" stroke-opacity="0.02" transform="translate(56.666666666667, 170)"/><polyline points="18.7,0,37.966666666667,0,56.666666666667,18.7,56.666666666667,37.966666666667,37.966666666667,56.666666666667,18.7,56.666666666667,0,37.966666666667,0,18.7,18.7,0" fill="#ddd" fill-opacity="0.02" stroke="#000" stroke-opacity="0.02" transform="translate(113.33333333333, 170)"/><polyline points="18.7,0,37.966666666667,0,56.666666666667,18.7,56.666666666667,37.966666666667,37.966666666667,56.666666666667,18.7,56.666666666667,0,37.966666666667,0,18.7,18.7,0" fill="#ddd" fill-opacity="0.14133333333333" stroke="#000" stroke-opacity="0.02" transform="translate(170, 170)"/><polyline points="18.7,0,37.966666666667,0,56.666666666667,18.7,56.666666666667,37.966666666667,37.966666666667,56.666666666667,18.7,56.666666666667,0,37.966666666667,0,18.7,18.7,0" fill="#222" fill-opacity="0.028666666666667" stroke="#000" stroke-opacity="0.02" transform="translate(226.66666666667, 170)"/><polyline points="18.7,0,37.966666666667,0,56.666666666667,18.7,56.666666666667,37.966666666667,37.966666666667,56.666666666667,18.7,56.666666666667,0,37.966666666667,0,18.7,18.7,0" fill="#ddd" fill-opacity="0.072" stroke="#000" stroke-opacity="0.02" transform="translate(283.33333333333, 170)"/><polyline points="18.7,0,37.966666666667,0,56.666666666667,18.7,56.666666666667,37.966666666667,37.966666666667,56.666666666667,18.7,56.666666666667,0,37.966666666667,0,18.7,18.7,0" fill="#ddd" fill-opacity="0.037333333333333" stroke="#000" stroke-opacity="0.02" transform="translate(0, 226.66666666667)"/><polyline points="18.7,0,37.966666666667,0,56.666666666667,18.7,56.666666666667,37.966666666667,37.966666666667,56.666666666667,18.7,56.666666666667,0,37.966666666667,0,18.7,18.7,0" fill="#ddd" fill-opacity="0.054666666666667" stroke="#000" stroke-opacity="0.02" transform="translate(56.666666666667, 226.66666666667)"/><polyline points="18.7,0,37.966666666667,0,56.666666666667,18.7,56.666666666667,37.966666666667,37.966666666667,56.666666666667,18.7,56.666666666667,0,37.966666666667,0,18.7,18.7,0" fill="#ddd" fill-opacity="0.10666666666667" stroke="#000" stroke-opacity="0.02" transform="translate(113.33333333333, 226.66666666667)"/><polyline points="18.7,0,37.966666666667,0,56.666666666667,18.7,56.666666666667,37.966666666667,37.966666666667,56.666666666667,18.7,56.666666666667,0,37.966666666667,0,18.7,18.7,0" fill="#ddd" fill-opacity="0.124" stroke="#000" stroke-opacity="0.02" transform="translate(170, 226.66666666667)"/><polyline points="18.7,0,37.966666666667,0,56.666666666667,18.7,56.666666666667,37.966666666667,37.966666666667,56.666666666667,18.7,56.666666666667,0,37.966666666667,0,18.7,18.7,0" fill="#222" fill-opacity="0.028666666666667" stroke="#000" stroke-opacity="0.02" transform="translate(226.66666666667, 226.66666666667)"/><polyline points="18.7,0,37.966666666667,0,56.666666666667,18.7,56.666666666667,37.966666666667,37.966666666667,56.666666666667,18.7,56.666666666667,0,37.966666666667,0,18.7,18.7,0" fill="#222" fill-opacity="0.11533333333333" stroke="#000" stroke-opacity="0.02" transform="translate(283.33333333333, 226.66666666667)"/><polyline points="18.7,0,37.966666666667,0,56.666666666667,18.7,56.666666666667,37.966666666667,37.966666666667,56.666666666667,18.7,56.666666666667,0,37.966666666667,0,18.7,18.7,0" fill="#ddd" fill-opacity="0.089333333333333" stroke="#000" stroke-opacity="0.02" transform="translate(0, 283.33333333333)"/><polyline points="18.7,0,37.966666666667,0,56.666666666667,18.7,56.666666666667,37.966666666667,37.966666666667,56.666666666667,18.7,56.666666666667,0,37.966666666667,0,18.7,18.7,0" fill="#ddd" fill-opacity="0.037333333333333" stroke="#000" stroke-opacity="0.02" transform="translate(56.666666666667, 283.33333333333)"/><polyline points="18.7,0,37.966666666667,0,56.666666666667,18.7,56.666666666667,37.966666666667,37.966666666667,56.666666666667,18.7,56.666666666667,0,37.966666666667,0,18.7,18.7,0" fill="#222" fill-opacity="0.15" stroke="#000" stroke-opacity="0.02" transform="translate(113.33333333333, 283.33333333333)"/><polyline points="18.7,0,37.966666666667,0,56.666666666667,18.7,56.666666666667,37.966666666667,37.966666666667,56.666666666667,18.7,56.666666666667,0,37.966666666667,0,18.7,18.7,0" fill="#222" fill-opacity="0.13266666666667" stroke="#000" stroke-opacity="0.02" transform="translate(170, 283.33333333333)"/><polyline points="18.7,0,37.966666666667,0,56.666666666667,18.7,56.666666666667,37.966666666667,37.966666666667,56.666666666667,18.7,56.666666666667,0,37.966666666667,0,18.7,18.7,0" fill="#222" fill-opacity="0.13266666666667" stroke="#000" stroke-opacity="0.02" transform="translate(226.66666666667, 283.33333333333)"/><polyline points="18.7,0,37.966666666667,0,56.666666666667,18.7,56.666666666667,37.966666666667,37.966666666667,56.666666666667,18.7,56.666666666667,0,37.966666666667,0,18.7,18.7,0" fill="#ddd" fill-opacity="0.089333333333333" stroke="#000" stroke-opacity="0.02" transform="translate(283.33333333333, 283.33333333333)"/></svg>