<?xml version="1.0" encoding="UTF-8"?>
<svg xmlns="http://www.w3.org/2000/svg" width="122" height="71"><rect x="0" y="0" width="100%" height="100%" fill="rgb(162, 155, 254)"/><polyline points="0, 0, 20.495934556232, 11.833333333333, 0, 23.666666666667, 0, 0" fill="#ddd" fill-opacity="0.037333333333333" stroke="#000" stroke-opacity="0.02" transform="translate(0, -11.833333333333) rotate(180, 10.247967278116, 11.833333333333)"/><polyline points="0, 0, 20.495934556232, 11.833333333333, 0, 23.666666666667, 0, 0" fill="#ddd" fill-opacity="0.037333333333333" stroke="#000" stroke-opacity="0.02" transform="translate(0, 59.166666666667) rotate(180, 10.247967278116, 11.833333333333)"/><polyline points="0, 0, 20.495934556232, 11.833333333333, 0, 23.666666666667, 0, 0" fill="#ddd" fill-opacity="0.124" stroke="#000" stroke-opacity="0.02" transform="translate(20.495934556232, -11.833333333333) rotate(0, 10.247967278116, 11.833333333333)"/><polyline points="0, 0, 20.495934556232, 11.833333333333, 0, 23.666666666667, 0, 0" fill="#ddd" fill-opacity="0.124" stroke="#000" stroke-opacity="0.02" transform="translate(20.495934556232, 59.166666666667) rotate(0, 10.247967278116, 11.833333333333)"/><polyline points="0, 0, 20.495934556232, 11.833333333333, 0, 23.666666666667, 0, 0" fill="#ddd" fill-opacity="0.072" stroke="#000" stroke-opacity="0.02" transform="translate(40.991869112463, -11.833333333333) rotate(180, 10.247967278116, 11.833333333333)"/><polyline points="0, 0, 20.495934556232, 11.833333333333, 0, 23.666666666667, 0, 0" fill="#ddd" fill-opacity="0.072" stroke="#000" stroke-opacity="0.02" transform="translate(40.991869112463, 59.166666666667) rotate(180, 10.247967278116, 11.833333333333)"/><polyline points="0, 0, 20.495934556232, 11.833333333333, 0, 23.666666666667, 0, 0" fill="#222" fill-opacity="0.13266666666667" stroke="#000" stroke-opacity="0.02" transform="translate(61.487803668695, -11.833333333333) rotate(0, 10.247967278116, 11.833333333333)"/><polyline points="0, 0, 20.495934556232, 11.833333333333, 0, 23.666666666667, 0, 0" fill="#222" fill-opacity="0.13266666666667" stroke="#000" stroke-opacity="0.02" transform="translate(61.487803668695, 59.166666666667) rotate(0, 10.247967278116, 11.833333333333)"/><polyline points="0, 0, 20.495934556232, 11.833333333333, 0, 23.666666666667, 0, 0" fill="#ddd" fill-opacity="0.124" stroke="#000" stroke-opacity="0.02" transform="translate(81.983738224927, -11.833333333333) rotate(180, 10.247967278116, 11.833333333333)"/><polyline points="0, 0, 20.495934556232, 11.833333333333, 0, 23.666666666667, 0, 0" fill="#ddd" fill-opacity="0.124" stroke="#000" stroke-opacity="0.02" transform="translate(81.983738224927, 59.166666666667) rotate(180, 10.247967278116, 11.833333333333)"/><polyline points="0, 0, 20.495934556232, 11.833333333333, 0, 23.666666666667, 0, 0" fill="#ddd" fill-opacity="0.02" stroke="#000" stroke-opacity="0.02" transform="translate(102.47967278116, -11.833333333333) rotate(0, 10.247967278116, 11.833333333333)"/><polyline points="0, 0, 20.495934556232, 11.833333333333, 0, 23.666666666667, 0, 0" fill="#ddd" fill-opacity="0.02" stroke="#000" stroke-opacity="0.02" transform="translate(102.47967278116, 59.166666666667) rotate(0, 10.247967278116, 11.833333333333)"/><polyline points="0, 0, 20.495934556232, 11.833333333333, 0, 23.666666666667, 0, 0" fill="#222" fill-opacity="0.13266666666667" stroke="#000" stroke-opacity="0.02" transform="translate(0, 0) rotate(0, 10.247967278116, 11.833333333333)"/><polyline points="0, 0, 20.495934556232, 11.833333333333, 0, 23.666666666667, 0, 0" fill="#222" fill-opacity="0.13266666666667" stroke="#000" stroke-opacity="0.02" transform="translate(20.495934556232, 0) rotate(180, 10.247967278116, 11.833333333333)"/><polyline points="0, 0, 20.495934556232, 11.833333333333, 0, 23.666666666667, 0, 0" fill="#222" fill-opacity="0.11533333333333" stroke="#000" stroke-opacity="0.02" transform="translate(40.991869112463, 0) rotate(0, 10.247967278116, 11.833333333333)"/><polyline points="0, 0, 20.495934556232, 11.833333333333, 0, 23.666666666667, 0, 0" fill="#222" fill-opacity="0.063333333333333" stroke="#000" stroke-opacity="0.02" transform="translate(61.487803668695, 0) rotate(180, 10.247967278116, 11.833333333333)"/><polyline points="0, 0, 20.495934556232, 11.833333333333, 0, 23.666666666667, 0, 0" fill="#ddd" fill-opacity="0.037333333333333" stroke="#000" stroke-opacity="0.02" transform="translate(81.983738224927, 0) rotate(0, 10.247967278116, 11.833333333333)"/><polyline points="0, 0, 20.495934556232, 11.833333333333, 0, 23.666666666667, 0, 0" fill="#ddd" fill-opacity="0.02" stroke="#000" stroke-opacity="0.02" transform="translate(102.47967278116, 0) rotate(180, 10.247967278116, 11.833333333333)"/><polyline points="0, 0, 20.495934556232, 11.833333333333, 0, 23.666666666667, 0, 0" fill="#ddd" fill-opacity="0.10666666666667" stroke="#000" stroke-opacity="0.02" transform="translate(0, 11.833333333333) rotate(180, 10.247967278116, 11.833333333333)"/><polyline points="0, 0, 20.495934556232, 11.833333333333, 0, 23.666666666667, 0, 0" fill="#ddd" fill-opacity="0.14133333333333" stroke="#000" stroke-opacity="0.02" transform="translate(20.495934556232, 11.833333333333) rotate(0, 10.247967278116, 11.833333333333)"/><polyline points="0, 0, 20.495934556232, 11.833333333333, 0, 23.666666666667, 0, 0" fill="#222" fill-opacity="0.080666666666667" stroke="#000" stroke-opacity="0.02" transform="translate(40.991869112463, 11.833333333333) rotate(180, 10.247967278116, 11.833333333333)"/><polyline points="0, 0, 20.495934556232, 11.833333333333, 0, 23.666666666667, 0, 0" fill="#ddd" fill-opacity="0.124" stroke="#000" stroke-opacity="0.02" transform="translate(61.487803668695, 11.833333333333) rotate(0, 10.247967278116, 11.833333333333)"/><polyline points="0, 0, 20.495934556232, 11.833333333333, 0, 23.666666666667, 0, 0" fill="#ddd" fill-opacity="0.072" stroke="#000" stroke-opacity="0.02" transform="translate(81.983738224927, 11.833333333333) rotate(180, 10.247967278116, 11.833333333333)"/><polyline points="0, 0, 20.495934556232, 11.833333333333, 0, 23.666666666667, 0, 0" fill="#222" fill-opacity="0.080666666666667" stroke="#000" stroke-opacity="0.02" transform="translate(102.47967278116, 11.833333333333) rotate(0, 10.247967278116, 11.833333333333)"/><polyline points="0, 0, 20.495934556232, 11.833333333333, 0, 23.666666666667, 0, 0" fill="#ddd" fill-opacity="0.124" stroke="#000" stroke-opacity="0.02" transform="translate(0, 23.666666666667) rotate(0, 10.247967278116, 11.833333333333)"/><polyline points="0, 0, 20.495934556232, 11.833333333333, 0, 23.666666666667, 0, 0" fill="#ddd" fill-opacity="0.037333333333333" stroke="#000" stroke-opacity="0.02" transform="translate(20.495934556232, 23.666666666667) rotate(180, 10.247967278116, 11.833333333333)"/><polyline points="0, 0, 20.495934556232, 11.833333333333, 0, 23.666666666667, 0, 0" fill="#222" fill-opacity="0.15" stroke="#000" stroke-opacity="0.02" transform="translate(40.991869112463, 23.666666666667) rotate(0, 10.247967278116, 11.833333333333)"/><polyline points="0, 0, 20.495934556232, 11.833333333333, 0, 23.666666666667, 0, 0" fill="#ddd" fill-opacity="0.072" stroke="#000" stroke-opacity="0.02" transform="translate(61.487803668695, 23.666666666667) rotate(180, 10.247967278116, 11.833333333333)"/><polyline points="0, 0, 20.495934556232, 11.833333333333, 0, 23.666666666667, 0, 0" fill="#ddd" fill-opacity="0.072" stroke="#000" stroke-opacity="0.02" transform="translate(81.983738224927, 23.666666666667) rotate(0, 10.247967278116, 11.833333333333)"/><polyline points="0, 0, 20.495934556232, 11.833333333333, 0, 23.666666666667, 0, 0" fill="#222" fill-opacity="0.063333333333333" stroke="#000" stroke-opacity="0.02" transform="translate(102.47967278116, 23.666666666667) rotate(180, 10.247967278116, 11.833333333333)"/><polyline points="0, 0, 20.495934556232, 11.833333333333, 0, 23.666666666667, 0, 0" fill="#222" fill-opacity="0.028666666666667" stroke="#000" stroke-opacity="0.02" transform="translate(0, 35.5) rotate(180, 10.247967278116, 11.833333333333)"/><polyline points="0, 0, 20.495934556232, 11.833333333333, 0, 23.666666666667, 0, 0" fill="#222" fill-opacity="0.098" stroke="#000" stroke-opacity="0.02" transform="translate(20.495934556232, 35.5) rotate(0, 10.247967278116, 11.833333333333)"/><polyline points="0, 0, 20.495934556232, 11.833333333333, 0, 23.666666666667, 0, 0" fill="#ddd" fill-opacity="0.10666666666667" stroke="#000" stroke-opacity="0.02" transform="translate(40.991869112463, 35.5) rotate(180, 10.247967278116, 11.833333333333)"/><polyline points="0, 0, 20.495934556232, 11.833333333333, 0, 23.666666666667, 0, 0" fill="#222" fill-opacity="0.046" stroke="#000" stroke-opacity="0.02" transform="translate(61.487803668695, 35.5) rotate(0, 10.247967278116, 11.833333333333)"/><polyline points="0, 0, 20.495934556232, 11.833333333333, 0, 23.666666666667, 0, 0" fill="#222" fill-opacity="0.11533333333333" stroke="#000" stroke-opacity="0.02" transform="translate(81.983738224927, 35.5) rotate(180, 10.247967278116, 11.833333333333)"/><polyline points="0, 0, 20.495934556232, 11.833333333333, 0, 23.666666666667, 0, 0" fill="#222" fill-opacity="0.046" stroke="#000" stroke-opacity="0.02" transform="translate(102.47967278116, 35.5) rotate(0, 10.247967278116, 11.833333333333)"/><polyline points="0, 0, 20.495934556232, 11.833333333333, 0, 23.666666666667, 0, 0" fill="#ddd" fill-opacity="0.124" stroke="#000" stroke-opacity="0.02" transform="translate(0, 47.333333333333) rotate(0, 10.247967278116, 11.833333333333)"/><polyline points="0, 0, 20.495934556232, 11.833333333333, 0, 23.666666666667, 0, 0" fill="#222" fill-opacity="0.046" stroke="#000" stroke-opacity="0.02" transform="translate(20.495934556232, 47.333333333333) rotate(180, 10.247967278116, 11.833333333333)"/><polyline points="0, 0, 20.495934556232, 11.833333333333, 0, 23.666666666667, 0, 0" fill="#222" fill-opacity="0.028666666666667" stroke="#000" stroke-opacity="0.02" transform="translate(40.991869112463, 47.333333333333) rotate(0, 10.247967278116, 11.833333333333)"/><polyline points="0, 0, 20.495934556232, 11.833333333333, 0, 23.666666666667, 0, 0" fill="#ddd" fill-opacity="0.124" stroke="#000" stroke-opacity="0.02" transform="translate(61.487803668695, 47.333333333333) rotate(180, 10.247967278116, 11.833333333333)"/><polyline points="0, 0, 20.495934556232, 11.833333333333, 0, 23.666666666667, 0, 0" fill="#222" fill-opacity="0.028666666666667" stroke="#000" stroke-opacity="0.02" transform="translate(81.983738224927, 47.333333333333) rotate(0, 10.247967278116, 11.833333333333)"/><polyline points="0, 0, 20.495934556232, 11.833333333333, 0, 23.666666666667, 0, 0" fill="#ddd" fill-opacity="0.02" stroke="#000" stroke-opacity="0.02" transform="translate(102.47967278116, 47.333333333333) rotate(180, 10.247967278116, 11.833333333333)"/></svg>