<?xml version="1.0" encoding="UTF-8"?>
<svg xmlns="http://www.w3.org/2000/svg" width="212" height="212"><rect x="0" y="0" width="100%" height="100%" fill="rgb(162, 155, 254)"/><g fill="#222" style="opacity:0.15;" transform="translate(-35.3625, -35.3625) rotate(45, 35.3625, 35.3625)"><rect x="25" y="0" width="25" height="75"/><rect x="0" y="25" width="75" height="25"/></g><g fill="#222" style="opacity:0.15;" transform="translate(176.8125, -35.3625) rotate(45, 35.3625, 35.3625)"><rect x="25" y="0" width="25" height="75"/><rect x="0" y="25" width="75" height="25"/></g><g fill="#222" style="opacity:0.15;" transform="translate(-35.3625, 176.8125) rotate(45, 35.3625, 35.3625)"><rect x="25" y="0" width="25" height="75"/><rect x="0" y="25" width="75" height="25"/></g><g fill="#222" style="opacity:0.15;" transform="translate(176.8125, 176.8125) rotate(45, 35.3625, 35.3625"><rect x="25" y="0" width="25" height="75"/><rect x="0" y="25" width="75" height="25"/></g><g fill="#ddd" style="opacity:0.037333333333333;" transform="translate(0, -17.68125) rotate(45, 35.3625, 35.3625)"><rect x="25" y="0" width="25" height="75"/><rect x="0" y="25" width="75" height="25"/></g><g fill="#ddd" style="opacity:0.037333333333333;" transform="translate(0, 194.49375) rotate(45, 35.3625, 35.3625)"><rect x="25" y="0" width="25" height="75"/><rect x="0" y="25" width="75" height="25"/></g><g fill="#ddd" style="opacity:0.072;" transform="translate(35.3625, -35.3625) rotate(45, 35.3625, 35.3625)"><rect x="25" y="0" width="25" height="75"/><rect x="0" y="25" width="75" height="25"/></g><g fill="#ddd" style="opacity:0.072;" transform="translate(35.3625, 176.8125) rotate(45, 35.3625, 35.3625)"><rect x="25" y="0" width="25" height="75"/><rect x="0" y="25" width="75" height="25"/></g><g fill="#222" style="opacity:0.080666666666667;" transform="translate(70.725, -17.68125) rotate(45, 35.3625, 35.3625)"><rect x="25" y="0" width="25" height="75"/><rect x="0" y="25" width="75" height="25"/></g><g fill="#222" style="opacity:0.080666666666667;" transform="translate(70.725, 194.49375) rotate(45, 35.3625, 35.3625)"><rect x="25" y="0" width="25" height="75"/><rect x="0" y="25" width="75" height="25"/></g><g fill="#ddd" style="opacity:0.037333333333333;" transform="translate(106.0875, -35.3625) rotate(45, 35.3625, 35.3625)"><rect x="25" y="0" width="25" height="75"/><rect x="0" y="25" width="75" height="25"/></g><g fill="#ddd" style="opacity:0.037333333333333;" transform="translate(106.0875, 176.8125) rotate(45, 35.3625, 35.3625)"><rect x="25" y="0" width="25" height="75"/><rect x="0" y="25" width="75" height="25"/></g><g fill="#ddd" style="opacity:0.054666666666667;" transform="translate(141.45, -17.68125) rotate(45, 35.3625, 35.3625)"><rect x="25" y="0" width="25" height="75"/><rect x="0" y="25" width="75" height="25"/></g><g fill="#ddd" style="opacity:0.054666666666667;" transform="translate(141.45, 194.49375) rotate(45, 35.3625, 35.3625)"><rect x="25" y="0" width="25" height="75"/><rect x="0" y="25" width="75" height="25"/></g><g fill="#222" style="opacity:0.063333333333333;" transform="translate(-35.3625, 0) rotate(45, 35.3625, 35.3625)"><rect x="25" y="0" width="25" height="75"/><rect x="0" y="25" width="75" height="25"/></g><g fill="#222" style="opacity:0.063333333333333;" transform="translate(176.8125, 0) rotate(45, 35.3625, 35.3625)"><rect x="25" y="0" width="25" height="75"/><rect x="0" y="25" width="75" height="25"/></g><g fill="#222" style="opacity:0.028666666666667;" transform="translate(0, 17.68125) rotate(45, 35.3625, 35.3625)"><rect x="25" y="0" width="25" height="75"/><rect x="0" y="25" width="75" height="25"/></g><g fill="#ddd" style="opacity:0.072;" transform="translate(35.3625, 0) rotate(45, 35.3625, 35.3625)"><rect x="25" y="0" width="25" height="75"/><rect x="0" y="25" width="75" height="25"/></g><g fill="#ddd" style="opacity:0.072;" transform="translate(70.725, 17.68125) rotate(45, 35.3625, 35.3625)"><rect x="25" y="0" width="25" height="75"/><rect x="0" y="25" width="75" height="25"/></g><g fill="#ddd" style="opacity:0.037333333333333;" transform="translate(106.0875, 0) rotate(45, 35.3625, 35.3625)"><rect x="25" y="0" width="25" height="75"/><rect x="0" y="25" width="75" height="25"/></g><g fill="#ddd" style="opacity:0.089333333333333;" transform="translate(141.45, 17.68125) rotate(45, 35.3625, 35.3625)"><rect x="25" y="0" width="25" height="75"/><rect x="0" y="25" width="75" height="25"/></g><g fill="#ddd" style="opacity:0.072;" transform="translate(-35.3625, 35.3625) rotate(45, 35.3625, 35.3625)"><rect x="25" y="0" width="25" height="75"/><rect x="0" y="25" width="75" height="25"/></g><g fill="#ddd" style="opacity:0.072;" transform="translate(176.8125, 35.3625) rotate(45, 35.3625, 35.3625)"><rect x="25" y="0" width="25" height="75"/><rect x="0" y="25" width="75" height="25"/></g><g fill="#222" style="opacity:0.028666666666667;" transform="translate(0, 53.04375) rotate(45, 35.3625, 35.3625)"><rect x="25" y="0" width="25" height="75"/><rect x="0" y="25" width="75" height="25"/></g><g fill="#ddd" style="opacity:0.089333333333333;" transform="translate(35.3625, 35.3625) rotate(45, 35.3625, 35.3625)"><rect x="25" y="0" width="25" height="75"/><rect x="0" y="25" width="75" height="25"/></g><g fill="#222" style="opacity:0.046;" transform="translate(70.725, 53.04375) rotate(45, 35.3625, 35.3625)"><rect x="25" y="0" width="25" height="75"/><rect x="0" y="25" width="75" height="25"/></g><g fill="#222" style="opacity:0.028666666666667;" transform="translate(106.0875, 35.3625) rotate(45, 35.3625, 35.3625)"><rect x="25" y="0" width="25" height="75"/><rect x="0" y="25" width="75" height="25"/></g><g fill="#222" style="opacity:0.13266666666667;" transform="translate(141.45, 53.04375) rotate(45, 35.3625, 35.3625)"><rect x="25" y="0" width="25" height="75"/><rect x="0" y="25" width="75" height="25"/></g><g fill="#222" style="opacity:0.11533333333333;" transform="translate(-35.3625, 70.725) rotate(45, 35.3625, 35.3625)"><rect x="25" y="0" width="25" height="75"/><rect x="0" y="25" width="75" height="25"/></g><g fill="#222" style="opacity:0.11533333333333;" transform="translate(176.8125, 70.725) rotate(45, 35.3625, 35.3625)"><rect x="25" y="0" width="25" height="75"/><rect x="0" y="25" width="75" height="25"/></g><g fill="#ddd" style="opacity:0.14133333333333;" transform="translate(0, 88.40625) rotate(45, 35.3625, 35.3625)"><rect x="25" y="0" width="25" height="75"/><rect x="0" y="25" width="75" height="25"/></g><g fill="#222" style="opacity:0.046;" transform="translate(35.3625, 70.725) rotate(45, 35.3625, 35.3625)"><rect x="25" y="0" width="25" height="75"/><rect x="0" y="25" width="75" height="25"/></g><g fill="#222" style="opacity:0.046;" transform="translate(70.725, 88.40625) rotate(45, 35.3625, 35.3625)"><rect x="25" y="0" width="25" height="75"/><rect x="0" y="25" width="75" height="25"/></g><g fill="#222" style="opacity:0.080666666666667;" transform="translate(106.0875, 70.725) rotate(45, 35.3625, 35.3625)"><rect x="25" y="0" width="25" height="75"/><rect x="0" y="25" width="75" height="25"/></g><g fill="#222" style="opacity:0.15;" transform="translate(141.45, 88.40625) rotate(45, 35.3625, 35.3625)"><rect x="25" y="0" width="25" height="75"/><rect x="0" y="25" width="75" height="25"/></g><g fill="#ddd" style="opacity:0.037333333333333;" transform="translate(-35.3625, 106.0875) rotate(45, 35.3625, 35.3625)"><rect x="25" y="0" width="25" height="75"/><rect x="0" y="25" width="75" height="25"/></g><g fill="#ddd" style="opacity:0.037333333333333;" transform="translate(176.8125, 106.0875) rotate(45, 35.3625, 35.3625)"><rect x="25" y="0" width="25" height="75"/><rect x="0" y="25" width="75" height="25"/></g><g fill="#ddd" style="opacity:0.10666666666667;" transform="translate(0, 123.76875) rotate(45, 35.3625, 35.3625)"><rect x="25" y="0" width="25" height="75"/><rect x="0" y="25" width="75" height="25"/></g><g fill="#ddd" style="opacity:0.072;" transform="translate(35.3625, 106.0875) rotate(45, 35.3625, 35.3625)"><rect x="25" y="0" width="25" height="75"/><rect x="0" y="25" width="75" height="25"/></g><g fill="#222" style="opacity:0.098;" transform="translate(70.725, 123.76875) rotate(45, 35.3625, 35.3625)"><rect x="25" y="0" width="25" height="75"/><rect x="0" y="25" width="75" height="25"/></g><g fill="#ddd" style="opacity:0.037333333333333;" transform="translate(106.0875, 106.0875) rotate(45, 35.3625, 35.3625)"><rect x="25" y="0" width="25" height="75"/><rect x="0" y="25" width="75" height="25"/></g><g fill="#222" style="opacity:0.080666666666667;" transform="translate(141.45, 123.76875) rotate(45, 35.3625, 35.3625)"><rect x="25" y="0" width="25" height="75"/><rect x="0" y="25" width="75" height="25"/></g><g fill="#ddd" style="opacity:0.14133333333333;" transform="translate(-35.3625, 141.45) rotate(45, 35.3625, 35.3625)"><rect x="25" y="0" width="25" height="75"/><rect x="0" y="25" width="75" height="25"/></g><g fill="#ddd" style="opacity:0.14133333333333;" transform="translate(176.8125, 141.45) rotate(45, 35.3625, 35.3625)"><rect x="25" y="0" width="25" height="75"/><rect x="0" y="25" width="75" height="25"/></g><g fill="#ddd" style="opacity:0.14133333333333;" transform="translate(-35.3625, -70.725) rotate(45, 35.3625, 35.3625)"><rect x="25" y="0" width="25" height="75"/><rect x="0" y="25" width="75" height="25"/></g><g fill="#222" style="opacity:0.046;" transform="translate(0, 159.13125) rotate(45, 35.3625, 35.3625)"><rect x="25" y="0" width="25" height="75"/><rect x="0" y="25" width="75" height="25"/></g><g fill="#222" style="opacity:0.046;" transform="translate(0, -53.04375) rotate(45, 35.3625, 35.3625)"><rect x="25" y="0" width="25" height="75"/><rect x="0" y="25" width="75" height="25"/></g><g fill="#ddd" style="opacity:0.14133333333333;" transform="translate(35.3625, 141.45) rotate(45, 35.3625, 35.3625)"><rect x="25" y="0" width="25" height="75"/><rect x="0" y="25" width="75" height="25"/></g><g fill="#ddd" style="opacity:0.14133333333333;" transform="translate(35.3625, -70.725) rotate(45, 35.3625, 35.3625)"><rect x="25" y="0" width="25" height="75"/><rect x="0" y="25" width="75" height="25"/></g><g fill="#ddd" style="opacity:0.037333333333333;" transform="translate(70.725, 159.13125) rotate(45, 35.3625, 35.3625)"><rect x="25" y="0" width="25" height="75"/><rect x="0" y="25" width="75" height="25"/></g><g fill="#ddd" style="opacity:0.037333333333333;" transform="translate(70.725, -53.04375) rotate(45, 35.3625, 35.3625)"><rect x="25" y="0" width="25" height="75"/><rect x="0" y="25" width="75" height="25"/></g><g fill="#222" style="opacity:0.11533333333333;" transform="translate(106.0875, 141.45) rotate(45, 35.3625, 35.3625)"><rect x="25" y="0" width="25" height="75"/><rect x="0" y="25" width="75" height="25"/></g><g fill="#222" style="opacity:0.11533333333333;" transform="translate(106.0875, -70.725) rotate(45, 35.3625, 35.3625)"><rect x="25" y="0" width="25" height="75"/><rect x="0" y="25" width="75" height="25"/></g><g fill="#ddd" style="opacity:0.089333333333333;" transform="translate(141.45, 159.13125) rotate(45, 35.3625, 35.3625)"><rect x="25" y="0" width="25" height="75"/><rect x="0" y="25" width="75" height="25"/></g><g fill="#ddd" style="opacity:0.089333333333333;" transform="translate(141.45, -53.04375) rotate(45, 35.3625, 35.3625)"><rect x="25" y="0" width="25" height="75"/><rect x="0" y="25" width="75" height="25"/></g></svg>