<?xml version="1.0" encoding="UTF-8"?>
<svg xmlns="http://www.w3.org/2000/svg" width="132" height="132"><rect x="0" y="0" width="100%" height="100%" fill="rgb(108, 92, 231)"/><g fill="#222" stroke="#000" stroke-opacity="0.02" style="fill-opacity:0.028666666666667;" transform="translate(-11, -16.5)"><rect x="11" y="0" width="11" height="33"/><rect x="0" y="11" width="33" height="11"/></g><g fill="#222" stroke="#000" stroke-opacity="0.02" style="fill-opacity:0.028666666666667;" transform="translate(121, -16.5)"><rect x="11" y="0" width="11" height="33"/><rect x="0" y="11" width="33" height="11"/></g><g fill="#222" stroke="#000" stroke-opacity="0.02" style="fill-opacity:0.028666666666667;" transform="translate(-11, 115.5)"><rect x="11" y="0" width="11" height="33"/><rect x="0" y="11" width="33" height="11"/></g><g fill="#222" stroke="#000" stroke-opacity="0.02" style="fill-opacity:0.028666666666667;" transform="translate(121, 115.5)"><rect x="11" y="0" width="11" height="33"/><rect x="0" y="11" width="33" height="11"/></g><g fill="#ddd" stroke="#000" stroke-opacity="0.02" style="fill-opacity:0.037333333333333;" transform="translate(11, -16.5)"><rect x="11" y="0" width="11" height="33"/><rect x="0" y="11" width="33" height="11"/></g><g fill="#ddd" stroke="#000" stroke-opacity="0.02" style="fill-opacity:0.037333333333333;" transform="translate(11, 115.5)"><rect x="11" y="0" width="11" height="33"/><rect x="0" y="11" width="33" height="11"/></g><g fill="#ddd" stroke="#000" stroke-opacity="0.02" style="fill-opacity:0.14133333333333;" transform="translate(33, -16.5)"><rect x="11" y="0" width="11" height="33"/><rect x="0" y="11" width="33" height="11"/></g><g fill="#ddd" stroke="#000" stroke-opacity="0.02" style="fill-opacity:0.14133333333333;" transform="translate(33, 115.5)"><rect x="11" y="0" width="11" height="33"/><rect x="0" y="11" width="33" height="11"/></g><g fill="#222" stroke="#000" stroke-opacity="0.02" style="fill-opacity:0.046;" transform="translate(55, -16.5)"><rect x="11" y="0" width="11" height="33"/><rect x="0" y="11" width="33" height="11"/></g><g fill="#222" stroke="#000" stroke-opacity="0.02" style="fill-opacity:0.046;" transform="translate(55, 115.5)"><rect x="11" y="0" width="11" height="33"/><rect x="0" y="11" width="33" height="11"/></g><g fill="#ddd" stroke="#000" stroke-opacity="0.02" style="fill-opacity:0.14133333333333;" transform="translate(77, -16.5)"><rect x="11" y="0" width="11" height="33"/><rect x="0" y="11" width="33" height="11"/></g><g fill="#ddd" stroke="#000" stroke-opacity="0.02" style="fill-opacity:0.14133333333333;" transform="translate(77, 115.5)"><rect x="11" y="0" width="11" height="33"/><rect x="0" y="11" width="33" height="11"/></g><g fill="#222" stroke="#000" stroke-opacity="0.02" style="fill-opacity:0.028666666666667;" transform="translate(99, -16.5)"><rect x="11" y="0" width="11" height="33"/><rect x="0" y="11" width="33" height="11"/></g><g fill="#222" stroke="#000" stroke-opacity="0.02" style="fill-opacity:0.028666666666667;" transform="translate(99, 115.5)"><rect x="11" y="0" width="11" height="33"/><rect x="0" y="11" width="33" height="11"/></g><g fill="#ddd" stroke="#000" stroke-opacity="0.02" style="fill-opacity:0.089333333333333;" transform="translate(0, 5.5)"><rect x="11" y="0" width="11" height="33"/><rect x="0" y="11" width="33" height="11"/></g><g fill="#ddd" stroke="#000" stroke-opacity="0.02" style="fill-opacity:0.089333333333333;" transform="translate(132, 5.5)"><rect x="11" y="0" width="11" height="33"/><rect x="0" y="11" width="33" height="11"/></g><g fill="#222" stroke="#000" stroke-opacity="0.02" style="fill-opacity:0.11533333333333;" transform="translate(22, 5.5)"><rect x="11" y="0" width="11" height="33"/><rect x="0" y="11" width="33" height="11"/></g><g fill="#222" stroke="#000" stroke-opacity="0.02" style="fill-opacity:0.13266666666667;" transform="translate(44, 5.5)"><rect x="11" y="0" width="11" height="33"/><rect x="0" y="11" width="33" height="11"/></g><g fill="#ddd" stroke="#000" stroke-opacity="0.02" style="fill-opacity:0.072;" transform="translate(66, 5.5)"><rect x="11" y="0" width="11" height="33"/><rect x="0" y="11" width="33" height="11"/></g><g fill="#222" stroke="#000" stroke-opacity="0.02" style="fill-opacity:0.13266666666667;" transform="translate(88, 5.5)"><rect x="11" y="0" width="11" height="33"/><rect x="0" y="11" width="33" height="11"/></g><g fill="#222" stroke="#000" stroke-opacity="0.02" style="fill-opacity:0.098;" transform="translate(110, 5.5)"><rect x="11" y="0" width="11" height="33"/><rect x="0" y="11" width="33" height="11"/></g><g fill="#ddd" stroke="#000" stroke-opacity="0.02" style="fill-opacity:0.02;" transform="translate(-11, 27.5)"><rect x="11" y="0" width="11" height="33"/><rect x="0" y="11" width="33" height="11"/></g><g fill="#ddd" stroke="#000" stroke-opacity="0.02" style="fill-opacity:0.02;" transform="translate(121, 27.5)"><rect x="11" y="0" width="11" height="33"/><rect x="0" y="11" width="33" height="11"/></g><g fill="#ddd" stroke="#000" stroke-opacity="0.02" style="fill-opacity:0.02;" transform="translate(11, 27.5)"><rect x="11" y="0" width="11" height="33"/><rect x="0" y="11" width="33" height="11"/></g><g fill="#222" stroke="#000" stroke-opacity="0.02" style="fill-opacity:0.13266666666667;" transform="translate(33, 27.5)"><rect x="11" y="0" width="11" height="33"/><rect x="0" y="11" width="33" height="11"/></g><g fill="#ddd" stroke="#000" stroke-opacity="0.02" style="fill-opacity:0.124;" transform="translate(55, 27.5)"><rect x="11" y="0" width="11" height="33"/><rect x="0" y="11" width="33" height="11"/></g><g fill="#ddd" stroke="#000" stroke-opacity="0.02" style="fill-opacity:0.10666666666667;" transform="translate(77, 27.5)"><rect x="11" y="0" width="11" height="33"/><rect x="0" y="11" width="33" height="11"/></g><g fill="#222" stroke="#000" stroke-opacity="0.02" style="fill-opacity:0.15;" transform="translate(99, 27.5)"><rect x="11" y="0" width="11" height="33"/><rect x="0" y="11" width="33" height="11"/></g><g fill="#ddd" stroke="#000" stroke-opacity="0.02" style="fill-opacity:0.072;" transform="translate(0, 49.5)"><rect x="11" y="0" width="11" height="33"/><rect x="0" y="11" width="33" height="11"/></g><g fill="#ddd" stroke="#000" stroke-opacity="0.02" style="fill-opacity:0.072;" transform="translate(132, 49.5)"><rect x="11" y="0" width="11" height="33"/><rect x="0" y="11" width="33" height="11"/></g><g fill="#222" stroke="#000" stroke-opacity="0.02" style="fill-opacity:0.080666666666667;" transform="translate(22, 49.5)"><rect x="11" y="0" width="11" height="33"/><rect x="0" y="11" width="33" height="11"/></g><g fill="#ddd" stroke="#000" stroke-opacity="0.02" style="fill-opacity:0.037333333333333;" transform="translate(44, 49.5)"><rect x="11" y="0" width="11" height="33"/><rect x="0" y="11" width="33" height="11"/></g><g fill="#222" stroke="#000" stroke-opacity="0.02" style="fill-opacity:0.080666666666667;" transform="translate(66, 49.5)"><rect x="11" y="0" width="11" height="33"/><rect x="0" y="11" width="33" height="11"/></g><g fill="#ddd" stroke="#000" stroke-opacity="0.02" style="fill-opacity:0.10666666666667;" transform="translate(88, 49.5)"><rect x="11" y="0" width="11" height="33"/><rect x="0" y="11" width="33" height="11"/></g><g fill="#ddd" stroke="#000" stroke-opacity="0.02" style="fill-opacity:0.089333333333333;" transform="translate(110, 49.5)"><rect x="11" y="0" width="11" height="33"/><rect x="0" y="11" width="33" height="11"/></g><g fill="#ddd" stroke="#000" stroke-opacity="0.02" style="fill-opacity:0.072;" transform="translate(-11, 71.5)"><rect x="11" y="0" width="11" height="33"/><rect x="0" y="11" width="33" height="11"/></g><g fill="#ddd" stroke="#000" stroke-opacity="0.02" style="fill-opacity:0.072;" transform="translate(121, 71.5)"><rect x="11" y="0" width="11" height="33"/><rect x="0" y="11" width="33" height="11"/></g><g fill="#222" stroke="#000" stroke-opacity="0.02" style="fill-opacity:0.15;" transform="translate(11, 71.5)"><rect x="11" y="0" width="11" height="33"/><rect x="0" y="11" width="33" height="11"/></g><g fill="#ddd" stroke="#000" stroke-opacity="0.02" style="fill-opacity:0.10666666666667;" transform="translate(33, 71.5)"><rect x="11" y="0" width="11" height="33"/><rect x="0" y="11" width="33" height="11"/></g><g fill="#ddd" stroke="#000" stroke-opacity="0.02" style="fill-opacity:0.124;" transform="translate(55, 71.5)"><rect x="11" y="0" width="11" height="33"/><rect x="0" y="11" width="33" height="11"/></g><g fill="#ddd" stroke="#000" stroke-opacity="0.02" style="fill-opacity:0.14133333333333;" transform="translate(77, 71.5)"><rect x="11" y="0" width="11" height="33"/><rect x="0" y="11" width="33" height="11"/></g><g fill="#ddd" stroke="#000" stroke-opacity="0.02" style="fill-opacity:0.124;" transform="translate(99, 71.5)"><rect x="11" y="0" width="11" height="33"/><rect x="0" y="11" width="33" height="11"/></g><g fill="#ddd" stroke="#000" stroke-opacity="0.02" style="fill-opacity:0.124;" transform="translate(0, 93.5)"><rect x="11" y="0" width="11" height="33"/><rect x="0" y="11" width="33" height="11"/></g><g fill="#ddd" stroke="#000" stroke-opacity="0.02" style="fill-opacity:0.124;" transform="translate(132, 93.5)"><rect x="11" y="0" width="11" height="33"/><rect x="0" y="11" width="33" height="11"/></g><g fill="#222" stroke="#000" stroke-opacity="0.02" style="fill-opacity:0.063333333333333;" transform="translate(22, 93.5)"><rect x="11" y="0" width="11" height="33"/><rect x="0" y="11" width="33" height="11"/></g><g fill="#222" stroke="#000" stroke-opacity="0.02" style="fill-opacity:0.13266666666667;" transform="translate(44, 93.5)"><rect x="11" y="0" width="11" height="33"/><rect x="0" y="11" width="33" height="11"/></g><g fill="#222" stroke="#000" stroke-opacity="0.02" style="fill-opacity:0.080666666666667;" transform="translate(66, 93.5)"><rect x="11" y="0" width="11" height="33"/><rect x="0" y="11" width="33" height="11"/></g><g fill="#ddd" stroke="#000" stroke-opacity="0.02" style="fill-opacity:0.072;" transform="translate(88, 93.5)"><rect x="11" y="0" width="11" height="33"/><rect x="0" y="11" width="33" height="11"/></g><g fill="#ddd" stroke="#000" stroke-opacity="0.02" style="fill-opacity:0.072;" transform="translate(110, 93.5)"><rect x="11" y="0" width="11" height="33"/><rect x="0" y="11" width="33" height="11"/></g></svg>